<svg version="1.1" id="Layer_1" xmlns="http://www.w3.org/2000/svg" x="0" y="0" viewBox="0 0 120 120" style="enable-background:new 0 0 120 120" xml:space="preserve"><style>.st0{fill:#2e2e35}.st1{fill:#fff}.st2{fill:#89e1f3}</style><circle class="st0" cx="60" cy="60" r="60"/><path class="st1" d="M77.82 58.96 90.35 82.6l-12.2 7.69L63.01 61.7l8.14-15.36 5.28 9.97z"/><path class="st1" d="m68.08 43.58 3.07 2.76 19.2 36.26-3.06-2.76z"/><path class="st0" d="M90.35 82.8c-.04 0-.09-.02-.11-.05L87.17 80c-.02-.02-.03-.03-.04-.05L67.92 43.69c-.04-.08-.03-.19.04-.25s.17-.06.23 0l3.07 2.75c.02.02.03.03.04.05L90.5 82.5c.04.08.03.19-.04.25-.02.04-.06.05-.11.05zm-2.92-3.08 2.28 2.05-18.7-35.29-2.28-2.05 18.7 35.29z"/><path class="st1" d="m75.08 87.52 3.07 2.77 12.2-7.69-3.06-2.76z"/><path class="st0" d="M78.15 90.48c-.04 0-.09-.02-.11-.05l-3.07-2.75c-.04-.05-.07-.11-.07-.17s.04-.12.09-.15l12.2-7.68c.07-.05.14-.03.2.02l3.07 2.75c.04.05.07.11.07.17s-.04.12-.09.15l-12.2 7.68c-.02.03-.06.03-.09.03zm-2.76-2.93 2.77 2.49 11.88-7.46-2.77-2.49-11.88 7.46z"/><path class="st2" d="m74.76 56.2 12.53 23.64-12.21 7.68-15.14-28.58 8.14-15.36 5.27 9.97z"/><path class="st0" d="M75.08 87.72h-.04c-.04-.02-.09-.05-.11-.09L59.78 59.05a.233.233 0 0 1 0-.2l8.14-15.36c.03-.06.09-.09.16-.09s.13.03.16.09l19.2 36.26c.06.09.02.22-.07.26l-12.21 7.68c-.02.03-.05.03-.08.03zM60.16 58.94l15 28.32 11.89-7.48-18.97-35.8-7.92 14.96z"/><path class="st2" d="M66.7 35.39h20.59v15.37H74.84z"/><path class="st1" d="m87.29 35.39 3.06 2.77v15.36l-3.06-2.76z"/><path class="st0" d="M90.35 53.71c-.04 0-.09-.02-.11-.05l-3.07-2.75a.195.195 0 0 1-.07-.15V35.39c0-.08.04-.14.1-.19.06-.03.14-.02.2.03l3.07 2.75c.04.03.07.09.07.15V53.5c0 .08-.04.14-.1.19-.03.02-.06.02-.09.02zm-2.88-2.86 2.71 2.25V38.26l-2.71-2.45v15.04z"/><path class="st1" d="m74.84 50.76 12.22-.03 3.29 2.79H77.91z"/><path class="st0" d="M90.35 53.71H77.91c-.04 0-.09-.02-.11-.05l-3.07-2.75c-.06-.05-.09-.14-.06-.22.03-.08.1-.12.17-.12l12.22-.02c.04 0 .09.02.11.05l3.29 2.77c.06.05.09.14.06.22-.01.07-.08.12-.17.12zm-12.38-.39h11.86L87 50.94l-11.66.02 2.63 2.36z"/><path class="st0" d="M87.29 50.95H74.84c-.07 0-.13-.03-.16-.09L66.55 35.5a.233.233 0 0 1 0-.2c.03-.07.09-.09.16-.09h20.58c.1 0 .18.09.18.2v15.36c0 .11-.09.18-.18.18zm-12.35-.38H87.1V35.59H67.02l7.92 14.98z"/><path class="st2" d="M49.91 35.59h-20.1v14.98h12.17zm3.38 0-10.97 20.7-12.44 23.49 11.9 7.48L66.39 40.8l-2.76-5.21z"/><path class="st0" d="M29.64 50.95h12.45c.07 0 .13-.03.16-.09l8.14-15.36c.03-.06.03-.14 0-.2-.03-.07-.09-.09-.16-.09H29.64c-.1 0-.18.08-.18.19v15.38c0 .1.08.17.18.17zm.17-15.36h20.1l-7.93 14.97H29.81V35.59zm34.09-.29c-.03-.06-.09-.09-.16-.09H53.18c-.07 0-.13.03-.16.09L29.49 79.75c-.06.09-.02.22.07.26l12.2 7.68c.03.02.06.03.09.03h.04c.04-.02.09-.05.11-.09l24.76-46.74c.03-.06.03-.14 0-.2L63.9 35.3zM41.78 87.26l-11.89-7.48 12.43-23.47-.16-.1.16.09L53.3 35.58h10.35l2.74 5.2-24.61 46.48z"/><path class="st1" d="m66.6 40.9.76 2.06-23.27 43.82-2.22.84z"/><path class="st0" d="M41.82 87.76c-.05 0-.1-.02-.13-.06a.166.166 0 0 1-.02-.2L66.5 40.73c.03-.06.09-.1.17-.09.07.01.13.05.15.12l.71 2.15c.02.05.01.1-.01.14L44.34 86.82c-.02.04-.06.07-.1.08l-2.36.85c-.02.01-.04.01-.06.01zm24.79-46.5-24.43 46 1.86-.67 23.11-43.64-.54-1.69z"/><path class="st1" d="m42.12 50.73 1.91-.54 6.99-13.37-.64-1.32z"/><path class="st0" d="M42.07 50.97c-.05 0-.1-.02-.14-.07-.05-.06-.06-.13-.02-.19l8.17-15.43c.03-.06.09-.09.15-.09.07 0 .12.04.16.09l.78 1.46c.03.05.03.11 0 .16l-6.99 13.38c-.02.04-.06.07-.11.09l-1.96.61c0-.01-.02-.01-.04-.01zm8.17-15.24L42.43 50.5l1.49-.46 6.91-13.23-.59-1.08z"/></svg>